<svg xmlns="http://www.w3.org/2000/svg" viewBox="0 0 520 520">
  <defs>
    <radialGradient id="cream" cx="45%" cy="40%" r="65%"><stop offset="0" stop-color="#fffaf0"/><stop offset=".72" stop-color="#ead8b5"/><stop offset="1" stop-color="#c7a46c"/></radialGradient>
    <radialGradient id="blue" cx="45%" cy="42%" r="65%"><stop offset="0" stop-color="#153b60"/><stop offset="1" stop-color="#06192c"/></radialGradient>
    <linearGradient id="leaf" x1="0" y1="0" x2="1" y2="1"><stop stop-color="#586b53"/><stop offset="1" stop-color="#1f342e"/></linearGradient>
  </defs>
  <g fill="none" stroke="#d49a3a" stroke-width="4" stroke-linecap="round" opacity=".95">
    <path d="M36 485C108 360 172 252 327 92"/><path d="M65 447C141 337 205 239 367 57"/>
  </g>
  <g fill="url(#leaf)" stroke="#d7b56b" stroke-width="1.5">
    <ellipse cx="104" cy="385" rx="22" ry="52" transform="rotate(-45 104 385)"/><ellipse cx="150" cy="330" rx="20" ry="48" transform="rotate(-50 150 330)"/>
    <ellipse cx="202" cy="270" rx="20" ry="47" transform="rotate(-42 202 270)"/><ellipse cx="255" cy="214" rx="18" ry="43" transform="rotate(-38 255 214)"/>
    <ellipse cx="308" cy="151" rx="18" ry="42" transform="rotate(-33 308 151)"/><ellipse cx="356" cy="99" rx="16" ry="37" transform="rotate(-28 356 99)"/>
    <ellipse cx="79" cy="418" rx="18" ry="44" transform="rotate(48 79 418)"/><ellipse cx="135" cy="360" rx="20" ry="47" transform="rotate(42 135 360)"/>
    <ellipse cx="186" cy="302" rx="18" ry="44" transform="rotate(38 186 302)"/><ellipse cx="238" cy="247" rx="17" ry="40" transform="rotate(34 238 247)"/>
  </g>
  <g transform="translate(60 115)">
    <g fill="url(#cream)" stroke="#d7bd8a" stroke-width="2">
      <ellipse cx="120" cy="120" rx="46" ry="98"/><ellipse cx="120" cy="120" rx="46" ry="98" transform="rotate(45 120 120)"/><ellipse cx="120" cy="120" rx="46" ry="98" transform="rotate(90 120 120)"/><ellipse cx="120" cy="120" rx="46" ry="98" transform="rotate(135 120 120)"/>
      <ellipse cx="120" cy="120" rx="30" ry="68" transform="rotate(22 120 120)"/><ellipse cx="120" cy="120" rx="30" ry="68" transform="rotate(67 120 120)"/><ellipse cx="120" cy="120" rx="30" ry="68" transform="rotate(112 120 120)"/><ellipse cx="120" cy="120" rx="30" ry="68" transform="rotate(157 120 120)"/>
      <circle cx="120" cy="120" r="35"/>
    </g>
  </g>
  <g transform="translate(260 12)">
    <g fill="url(#blue)" stroke="#d49a3a" stroke-width="1.5">
      <ellipse cx="70" cy="70" rx="23" ry="56"/><ellipse cx="70" cy="70" rx="23" ry="56" transform="rotate(45 70 70)"/><ellipse cx="70" cy="70" rx="23" ry="56" transform="rotate(90 70 70)"/><ellipse cx="70" cy="70" rx="23" ry="56" transform="rotate(135 70 70)"/>
      <circle cx="70" cy="70" r="16" fill="#d49a3a"/><circle cx="70" cy="70" r="6" fill="#fff4ce"/>
    </g>
  </g>
  <g transform="translate(10 315) scale(.72)">
    <g fill="url(#blue)" stroke="#d49a3a" stroke-width="1.5"><ellipse cx="70" cy="70" rx="23" ry="56"/><ellipse cx="70" cy="70" rx="23" ry="56" transform="rotate(45 70 70)"/><ellipse cx="70" cy="70" rx="23" ry="56" transform="rotate(90 70 70)"/><ellipse cx="70" cy="70" rx="23" ry="56" transform="rotate(135 70 70)"/><circle cx="70" cy="70" r="15" fill="#d49a3a"/></g>
  </g>
  <g fill="#d49a3a"><circle cx="342" cy="180" r="6"/><circle cx="385" cy="137" r="5"/><circle cx="290" cy="225" r="5"/><circle cx="78" cy="300" r="5"/></g>
</svg>
